<svg width="136" height="109" viewBox="0 0 136 109" fill="none" xmlns="http://www.w3.org/2000/svg">
<g clip-path="url(#clip0_559_850)" filter="url(#filter0_d_559_850)">
<rect width="132" height="104" transform="translate(2 2)" fill="white"/>
<rect x="43" y="14" width="50" height="10" fill="#005EFF"/>
<rect x="16" y="43" width="38" height="2" fill="#005EFF"/>
<rect x="16" y="51" width="112" height="2" fill="#D9D9D9"/>
<rect x="16" y="47" width="112" height="2" fill="#D9D9D9"/>
<rect x="16" y="55" width="112" height="2" fill="#D9D9D9"/>
<rect x="16" y="59" width="112" height="2" fill="#D9D9D9"/>
<rect x="16" y="71" width="112" height="2" fill="#D9D9D9"/>
<rect x="16" y="67" width="112" height="2" fill="#D9D9D9"/>
<rect x="16" y="75" width="112" height="2" fill="#D9D9D9"/>
<rect x="16" y="79" width="112" height="2" fill="#D9D9D9"/>
<rect x="16" y="83" width="112" height="2" fill="#D9D9D9"/>
<rect x="16" y="95" width="112" height="2" fill="#D9D9D9"/>
<rect x="16" y="91" width="44" height="2" fill="#005EFF"/>
<rect x="16" y="99" width="112" height="2" fill="#D9D9D9"/>
<rect x="16" y="103" width="112" height="2" fill="#D9D9D9"/>
<rect x="30" y="27" width="77" height="5" fill="#D9D9D9"/>
</g>
<defs>
<filter id="filter0_d_559_850" x="0.341615" y="0.89441" width="135.317" height="107.317" filterUnits="userSpaceOnUse" color-interpolation-filters="sRGB">
<feFlood flood-opacity="0" result="BackgroundImageFix"/>
<feColorMatrix in="SourceAlpha" type="matrix" values="0 0 0 0 0 0 0 0 0 0 0 0 0 0 0 0 0 0 127 0" result="hardAlpha"/>
<feOffset dy="0.552795"/>
<feGaussianBlur stdDeviation="0.829193"/>
<feComposite in2="hardAlpha" operator="out"/>
<feColorMatrix type="matrix" values="0 0 0 0 0 0 0 0 0 0 0 0 0 0 0 0 0 0 0.05 0"/>
<feBlend mode="normal" in2="BackgroundImageFix" result="effect1_dropShadow_559_850"/>
<feBlend mode="normal" in="SourceGraphic" in2="effect1_dropShadow_559_850" result="shape"/>
</filter>
<clipPath id="clip0_559_850">
<rect width="132" height="104" fill="white" transform="translate(2 2)"/>
</clipPath>
</defs>
</svg>
