<svg width="82" height="37" viewBox="0 0 82 37" fill="none" xmlns="http://www.w3.org/2000/svg">
<path d="M10.0283 28.3646C8.26232 28.3646 6.60145 27.9654 5.04569 27.167C3.53198 26.3685 2.31261 25.2129 1.38757 23.7002C0.462522 22.1874 0 20.3805 0 18.2794C0.0420474 15.3799 0.988115 13.0897 2.8382 11.4089C4.68829 9.68598 7.08499 8.82453 10.0283 8.82453C11.1636 8.82453 12.2779 8.9506 13.3711 9.20273C14.4643 9.45486 15.4104 9.91709 16.2093 10.5894C16.84 11.0937 17.1554 11.745 17.1554 12.5434C17.1554 13.2158 16.9031 13.8251 16.3985 14.3714C15.936 14.9177 15.3473 15.1908 14.6325 15.1908C14.17 15.1908 13.7495 15.0647 13.3711 14.8126C12.7404 14.4764 12.1727 14.2453 11.6682 14.1193C11.2056 13.9932 10.68 13.9302 10.0914 13.9302C8.70382 13.9302 7.56854 14.3294 6.68554 15.1278C5.80255 15.9262 5.36105 16.9977 5.36105 18.3424C5.36105 19.8972 5.84459 21.1158 6.81168 21.9983C7.77877 22.8387 8.91405 23.2589 10.2175 23.2589C11.6892 23.2589 13.0768 22.7127 14.3802 21.6201C14.8848 21.2419 15.3683 21.0528 15.8309 21.0528C16.5036 21.0528 17.0713 21.326 17.5338 21.8722C18.0383 22.4185 18.2906 23.0488 18.2906 23.7632C18.2906 24.0574 18.2276 24.3935 18.1014 24.7717C17.9753 25.1079 17.744 25.4441 17.4076 25.7802C16.2724 26.7047 15.053 27.356 13.7495 27.7342C12.4881 28.1545 11.2477 28.3646 10.0283 28.3646ZM24.6731 28.3646C23.8742 28.3646 23.2015 28.1334 22.6549 27.6712C22.1082 27.209 21.8349 26.6207 21.8349 25.9063V11.598C21.8349 10.9256 22.0872 10.3583 22.5918 9.89608C23.1384 9.39182 23.8322 9.13969 24.6731 9.13969C25.5141 9.13969 26.1658 9.39182 26.6283 9.89608C27.1329 10.3583 27.3852 10.9466 27.3852 11.661V25.8433C27.3852 26.5576 27.1119 27.167 26.5653 27.6712C26.0607 28.1334 25.43 28.3646 24.6731 28.3646ZM24.6731 5.98808C23.7901 5.98808 23.0333 5.71494 22.4026 5.16866C21.7719 4.58035 21.4565 3.84498 21.4565 2.96252C21.4565 2.16411 21.7719 1.47075 22.4026 0.882455C23.0333 0.294151 23.7901 0 24.6731 0C25.5141 0 26.2289 0.294151 26.8176 0.882455C27.4483 1.47075 27.7636 2.16411 27.7636 2.96252C27.7636 3.84498 27.4483 4.58035 26.8176 5.16866C26.2289 5.71494 25.5141 5.98808 24.6731 5.98808ZM40.4992 28.3646C39.7423 28.3646 39.0275 28.1965 38.3548 27.8603C37.682 27.5241 37.1983 27.0199 36.904 26.3475L30.7861 12.4804C30.66 12.1022 30.5969 11.724 30.5969 11.3458C30.5969 10.5054 30.8912 9.87507 31.4799 9.45486C32.0686 9.03464 32.7413 8.82453 33.4982 8.82453C34.0868 8.82453 34.5914 8.99262 35.0119 9.32879C35.4744 9.62294 35.7898 10.0432 35.958 10.5894L39.6793 20.7376C39.8895 21.2839 40.1838 21.5571 40.5623 21.5571C40.8986 21.5571 41.1719 21.2839 41.3822 20.7376L44.8511 10.5894C45.0613 10.0011 45.3977 9.55991 45.8602 9.26576C46.3228 8.97161 46.8273 8.82453 47.3739 8.82453C48.0887 8.82453 48.7195 9.05565 49.2661 9.51789C49.8547 9.9381 50.1491 10.5894 50.1491 11.4719C50.1491 11.64 50.1491 11.8081 50.1491 11.9762C50.1491 12.1022 50.107 12.2703 50.0229 12.4804L44.0942 26.3475C43.7999 27.0199 43.3164 27.5241 42.6436 27.8603C42.0129 28.1965 41.2981 28.3646 40.4992 28.3646ZM56.2088 28.3646C55.4099 28.3646 54.7371 28.1334 54.1905 27.6712C53.6439 27.209 53.3706 26.6207 53.3706 25.9063V2.45826C53.3706 1.78592 53.6229 1.21863 54.1274 0.756386C54.674 0.252129 55.3678 0 56.2088 0C57.0077 0 57.6594 0.252129 58.164 0.756386C58.6686 1.21863 58.9208 1.80693 58.9208 2.5213V25.8433C58.9208 26.5576 58.6475 27.167 58.1009 27.6712C57.5963 28.1334 56.9656 28.3646 56.2088 28.3646ZM62.1326 11.3458C62.1326 10.5054 62.4269 9.87507 63.0156 9.45486C63.6042 9.03464 64.277 8.82453 65.0339 8.82453C65.6225 8.82453 66.1271 8.99262 66.5476 9.32879C67.0101 9.62294 67.3254 10.0432 67.4936 10.5894L71.404 20.1073C71.6143 20.6536 71.9086 20.9267 72.287 20.9267C72.6655 20.9267 72.9388 20.6536 73.107 20.1073L76.5128 10.5894C76.723 10.0011 77.0594 9.55991 77.5219 9.26576C78.0265 8.97161 78.5521 8.82453 79.0987 8.82453C79.8135 8.82453 80.4653 9.05565 81.0539 9.51789C81.6846 9.98013 82 10.5894 82 11.3458C82 11.766 81.9159 12.1652 81.7477 12.5434L71.9086 35.2351C71.6143 35.8654 71.2359 36.3066 70.7733 36.5588C70.3529 36.8529 69.9114 37 69.4488 37C68.692 37 67.9982 36.7269 67.3675 36.1806C66.7788 35.6763 66.4845 35.067 66.4845 34.3526C66.4845 33.9744 66.5686 33.6383 66.7368 33.3441L70.1426 27.293C69.4278 27.0829 68.8602 26.5576 68.4397 25.7172L62.3218 12.4804C62.1957 12.1022 62.1326 11.724 62.1326 11.3458Z" fill="url(#paint0_linear_459_7876)"/>
<defs>
<linearGradient id="paint0_linear_459_7876" x1="41.0319" y1="-7.51968" x2="41.0319" y2="33.139" gradientUnits="userSpaceOnUse">
<stop stop-color="#005EFF"/>
<stop offset="1" stop-color="#B830FC"/>
</linearGradient>
</defs>
</svg>
