<svg width="136" height="109" viewBox="0 0 136 109" fill="none" xmlns="http://www.w3.org/2000/svg">
<g clip-path="url(#clip0_558_793)" filter="url(#filter0_d_558_793)">
<rect width="132" height="104" transform="translate(2 2)" fill="white"/>
<rect x="58" y="15" width="50" height="10" fill="#D9D9D9"/>
<rect x="12" y="84" width="21" height="2" fill="#005EFF"/>
<rect x="62" y="46" width="21" height="2" fill="#005EFF"/>
<rect x="12" y="92" width="30" height="2" fill="#D9D9D9"/>
<rect x="62" y="54" width="62" height="2" fill="#D9D9D9"/>
<rect x="12" y="88" width="30" height="2" fill="#D9D9D9"/>
<rect x="62" y="50" width="62" height="2" fill="#D9D9D9"/>
<rect x="2" y="1" width="50" height="105" fill="#005EFF"/>
<rect x="12" y="44" width="30" height="2" fill="#D9D9D9"/>
<rect x="12" y="48" width="30" height="2" fill="#D9D9D9"/>
<rect x="12" y="52" width="30" height="2" fill="#D9D9D9"/>
<rect x="12" y="56" width="30" height="2" fill="#D9D9D9"/>
<rect x="12" y="60" width="30" height="2" fill="#D9D9D9"/>
<rect x="12" y="64" width="30" height="2" fill="#D9D9D9"/>
<rect x="12" y="68" width="30" height="2" fill="#D9D9D9"/>
<rect x="12" y="72" width="30" height="2" fill="#D9D9D9"/>
<rect x="12" y="76" width="30" height="2" fill="#D9D9D9"/>
<rect x="12" y="80" width="30" height="2" fill="#D9D9D9"/>
<rect x="62" y="58" width="62" height="2" fill="#D9D9D9"/>
<rect x="62" y="62" width="62" height="2" fill="#D9D9D9"/>
<rect x="62" y="74" width="62" height="2" fill="#D9D9D9"/>
<rect x="62" y="70" width="62" height="2" fill="#D9D9D9"/>
<rect x="62" y="78" width="62" height="2" fill="#D9D9D9"/>
<rect x="62" y="82" width="62" height="2" fill="#D9D9D9"/>
<rect x="62" y="86" width="62" height="2" fill="#D9D9D9"/>
<rect x="62" y="98" width="62" height="2" fill="#D9D9D9"/>
<rect x="62" y="94" width="62" height="2" fill="#D9D9D9"/>
<rect x="62" y="102" width="62" height="2" fill="#D9D9D9"/>
<circle cx="27" cy="25" r="11" fill="#D9D9D9"/>
<rect x="13" y="92" width="30" height="2" fill="#D9D9D9"/>
<rect x="13" y="96" width="30" height="2" fill="#D9D9D9"/>
<rect x="13" y="100" width="30" height="2" fill="#D9D9D9"/>
<rect x="13" y="104" width="30" height="2" fill="#D9D9D9"/>
</g>
<defs>
<filter id="filter0_d_558_793" x="0.341615" y="0.89441" width="135.317" height="107.317" filterUnits="userSpaceOnUse" color-interpolation-filters="sRGB">
<feFlood flood-opacity="0" result="BackgroundImageFix"/>
<feColorMatrix in="SourceAlpha" type="matrix" values="0 0 0 0 0 0 0 0 0 0 0 0 0 0 0 0 0 0 127 0" result="hardAlpha"/>
<feOffset dy="0.552795"/>
<feGaussianBlur stdDeviation="0.829193"/>
<feComposite in2="hardAlpha" operator="out"/>
<feColorMatrix type="matrix" values="0 0 0 0 0 0 0 0 0 0 0 0 0 0 0 0 0 0 0.05 0"/>
<feBlend mode="normal" in2="BackgroundImageFix" result="effect1_dropShadow_558_793"/>
<feBlend mode="normal" in="SourceGraphic" in2="effect1_dropShadow_558_793" result="shape"/>
</filter>
<clipPath id="clip0_558_793">
<rect width="132" height="104" fill="white" transform="translate(2 2)"/>
</clipPath>
</defs>
</svg>
