<svg width="136" height="173" viewBox="0 0 136 173" fill="none" xmlns="http://www.w3.org/2000/svg">
<g filter="url(#filter0_d_495_17313)">
<path d="M2 2H134V170H2V2Z" fill="white" shape-rendering="crispEdges"/>
<path d="M133.724 2.27637V169.724H2.27637V2.27637H133.724Z" stroke="#E4E4E7" stroke-width="0.552795" shape-rendering="crispEdges"/>
<rect x="12" y="16" width="50" height="10" fill="#D9D9D9"/>
<rect x="12" y="31" width="77" height="5" fill="#D9D9D9"/>
<rect x="12" y="38" width="77" height="5" fill="#D9D9D9"/>
<rect x="12" y="63" width="30" height="2" fill="#D9D9D9"/>
<rect x="12" y="84" width="21" height="2" fill="#005EFF"/>
<rect x="62" y="62" width="21" height="2" fill="#005EFF"/>
<rect x="62" y="121" width="21" height="2" fill="#005EFF"/>
<rect x="12" y="108" width="21" height="2" fill="#005EFF"/>
<rect x="12" y="140" width="21" height="2" fill="#005EFF"/>
<rect x="12" y="71" width="30" height="2" fill="#D9D9D9"/>
<rect x="12" y="92" width="30" height="2" fill="#D9D9D9"/>
<rect x="62" y="70" width="62" height="2" fill="#D9D9D9"/>
<rect x="62" y="129" width="62" height="2" fill="#D9D9D9"/>
<rect x="62" y="90" width="62" height="2" fill="#D9D9D9"/>
<rect x="62" y="147" width="62" height="2" fill="#D9D9D9"/>
<rect x="12" y="116" width="30" height="2" fill="#D9D9D9"/>
<rect x="12" y="148" width="30" height="2" fill="#D9D9D9"/>
<rect x="12" y="67" width="30" height="2" fill="#D9D9D9"/>
<rect x="12" y="88" width="30" height="2" fill="#D9D9D9"/>
<rect x="62" y="66" width="62" height="2" fill="#D9D9D9"/>
<rect x="62" y="125" width="62" height="2" fill="#D9D9D9"/>
<rect x="62" y="86" width="62" height="2" fill="#D9D9D9"/>
<rect x="62" y="143" width="62" height="2" fill="#D9D9D9"/>
<rect x="12" y="112" width="30" height="2" fill="#D9D9D9"/>
<rect x="12" y="144" width="30" height="2" fill="#D9D9D9"/>
<rect x="12" y="75" width="30" height="2" fill="#D9D9D9"/>
<rect x="12" y="96" width="30" height="2" fill="#D9D9D9"/>
<rect x="62" y="74" width="62" height="2" fill="#D9D9D9"/>
<rect x="62" y="78" width="62" height="2" fill="#D9D9D9"/>
<rect x="62" y="133" width="62" height="2" fill="#D9D9D9"/>
<rect x="62" y="94" width="62" height="2" fill="#D9D9D9"/>
<rect x="62" y="98" width="62" height="2" fill="#D9D9D9"/>
<rect x="62" y="102" width="62" height="2" fill="#D9D9D9"/>
<rect x="62" y="151" width="62" height="2" fill="#D9D9D9"/>
<rect x="12" y="120" width="30" height="2" fill="#D9D9D9"/>
<rect x="12" y="124" width="30" height="2" fill="#D9D9D9"/>
<rect x="12" y="128" width="30" height="2" fill="#D9D9D9"/>
<rect x="12" y="152" width="30" height="2" fill="#D9D9D9"/>
<circle cx="110" cy="26" r="11" fill="#005EFF"/>
</g>
<defs>
<filter id="filter0_d_495_17313" x="0.341615" y="0.89441" width="135.317" height="171.317" filterUnits="userSpaceOnUse" color-interpolation-filters="sRGB">
<feFlood flood-opacity="0" result="BackgroundImageFix"/>
<feColorMatrix in="SourceAlpha" type="matrix" values="0 0 0 0 0 0 0 0 0 0 0 0 0 0 0 0 0 0 127 0" result="hardAlpha"/>
<feOffset dy="0.552795"/>
<feGaussianBlur stdDeviation="0.829193"/>
<feComposite in2="hardAlpha" operator="out"/>
<feColorMatrix type="matrix" values="0 0 0 0 0 0 0 0 0 0 0 0 0 0 0 0 0 0 0.05 0"/>
<feBlend mode="normal" in2="BackgroundImageFix" result="effect1_dropShadow_495_17313"/>
<feBlend mode="normal" in="SourceGraphic" in2="effect1_dropShadow_495_17313" result="shape"/>
</filter>
</defs>
</svg>
